<svg width="24" height="24" xmlns="http://www.w3.org/2000/svg" xmlns:xlink="http://www.w3.org/1999/xlink"><title>Foundation / Icon / 24 / Social networks / Facebook</title><defs><path d="M3.994 3A.993.993 0 0 0 3 3.994v16.012c0 .549.445.994.994.994h8.62v-6.97h-2.346v-2.718h2.347V9.31c0-2.325 1.419-3.591 3.493-3.591.994 0 1.847.075 2.097.107v2.43l-1.439.001c-1.128 0-1.346.535-1.346 1.322v1.734h2.69l-.35 2.718h-2.34V21h4.586a.994.994 0 0 0 .994-.994V3.994A.993.993 0 0 0 20.006 3H3.994z" id="prefix__a"/></defs><g fill="none" fill-rule="evenodd"><path d="M0 0h24v24H0z"/><use fill="#222" xlink:href="#prefix__a"/></g></svg>