<svg width="24" height="24" xmlns="http://www.w3.org/2000/svg" xmlns:xlink="http://www.w3.org/1999/xlink"><title>Foundation / Icon / 24 / Social networks / Instagram</title><defs><path d="M12.014 3c2.444 0 2.75.01 3.71.054.958.044 1.612.196 2.185.419.592.23 1.094.537 1.594 1.038.5.5.808 1.002 1.038 1.594.223.572.375 1.226.418 2.184.044.96.055 1.267.055 3.711s-.01 2.75-.055 3.71c-.043.959-.195 1.613-.418 2.185a4.412 4.412 0 0 1-1.038 1.594c-.5.5-1.002.809-1.594 1.039-.573.222-1.227.374-2.185.418-.96.044-1.266.054-3.71.054-2.445 0-2.751-.01-3.711-.054-.958-.044-1.612-.196-2.185-.418a4.412 4.412 0 0 1-1.594-1.039c-.5-.5-.808-1.002-1.038-1.594-.223-.572-.375-1.226-.418-2.184-.044-.96-.054-1.267-.054-3.711s.01-2.75.054-3.71c.043-.959.195-1.613.418-2.185A4.412 4.412 0 0 1 4.524 4.51c.5-.5 1.002-.808 1.594-1.038.573-.223 1.227-.375 2.185-.419C9.263 3.01 9.569 3 12.013 3zm0 1.622c-2.404 0-2.688.009-3.637.052-.878.04-1.354.187-1.671.31-.42.163-.72.358-1.035.673-.315.315-.51.615-.673 1.035-.124.317-.27.794-.31 1.671-.044.95-.053 1.234-.053 3.637s.01 2.688.053 3.637c.04.877.186 1.354.31 1.671.163.42.358.72.673 1.035.315.315.614.51 1.035.673.317.123.793.27 1.67.31.95.043 1.234.052 3.638.052 2.403 0 2.687-.009 3.636-.052.878-.04 1.354-.187 1.671-.31.42-.163.72-.358 1.035-.673.315-.315.51-.615.674-1.035.123-.317.27-.794.31-1.671.043-.95.052-1.234.052-3.637s-.01-2.688-.053-3.637c-.04-.877-.186-1.354-.31-1.67a2.788 2.788 0 0 0-.673-1.036 2.789 2.789 0 0 0-1.035-.673c-.317-.123-.793-.27-1.67-.31-.95-.043-1.234-.052-3.637-.052zm5.884 2.574a1.08 1.08 0 1 1-2.16 0 1.08 1.08 0 0 1 2.16 0zm-5.884.182a4.622 4.622 0 1 1 0 9.244 4.622 4.622 0 0 1 0-9.244zm0 7.622a3 3 0 1 0 0-6 3 3 0 0 0 0 6z" id="prefix__a"/></defs><g fill="none" fill-rule="evenodd"><path d="M0 0h24v24H0z"/><use fill="#222" xlink:href="#prefix__a"/></g></svg>